<mxfile host="app.diagrams.net" modified="2024-06-03T05:47:40.490Z" agent="Mozilla/5.0 (Windows NT 10.0; Win64; x64) AppleWebKit/537.36 (KHTML, like Gecko) Chrome/125.0.0.0 Safari/537.36" etag="eFDU92aRBukA3gqagHtE" version="24.4.13" type="github">
  <diagram name="PÃ¡gina-1" id="ZnuKG7oiEYbDBymO3Cxp">
    <mxGraphModel dx="1434" dy="746" grid="0" gridSize="10" guides="1" tooltips="1" connect="1" arrows="1" fold="1" page="1" pageScale="1" pageWidth="827" pageHeight="1169" background="#E0E0E0" math="0" shadow="0">
      <root>
        <mxCell id="0" />
        <mxCell id="1" parent="0" />
        <mxCell id="LritLhVlbuT71aCa6HcX-32" value="" style="edgeStyle=orthogonalEdgeStyle;rounded=0;orthogonalLoop=1;jettySize=auto;html=1;strokeColor=#0B4D6A;" edge="1" parent="1" source="LritLhVlbuT71aCa6HcX-1" target="LritLhVlbuT71aCa6HcX-2">
          <mxGeometry relative="1" as="geometry" />
        </mxCell>
        <mxCell id="LritLhVlbuT71aCa6HcX-40" value="" style="edgeStyle=orthogonalEdgeStyle;rounded=0;orthogonalLoop=1;jettySize=auto;html=1;strokeColor=#0B4D6A;" edge="1" parent="1" source="LritLhVlbuT71aCa6HcX-1" target="LritLhVlbuT71aCa6HcX-4">
          <mxGeometry relative="1" as="geometry" />
        </mxCell>
        <mxCell id="LritLhVlbuT71aCa6HcX-1" value="Atendente" style="rounded=0;whiteSpace=wrap;html=1;labelBackgroundColor=none;fillColor=#0050ef;strokeColor=#001DBC;fontColor=#ffffff;" vertex="1" parent="1">
          <mxGeometry x="140" y="201" width="120" height="60" as="geometry" />
        </mxCell>
        <mxCell id="LritLhVlbuT71aCa6HcX-2" value="Realizar Venda&amp;nbsp;" style="rounded=0;whiteSpace=wrap;html=1;labelBackgroundColor=none;fillColor=#09555B;strokeColor=#BAC8D3;fontColor=#EEEEEE;" vertex="1" parent="1">
          <mxGeometry x="140" y="305" width="120" height="60" as="geometry" />
        </mxCell>
        <mxCell id="LritLhVlbuT71aCa6HcX-29" value="" style="edgeStyle=orthogonalEdgeStyle;rounded=0;orthogonalLoop=1;jettySize=auto;html=1;strokeColor=#0B4D6A;" edge="1" parent="1" source="LritLhVlbuT71aCa6HcX-3" target="LritLhVlbuT71aCa6HcX-5">
          <mxGeometry relative="1" as="geometry">
            <Array as="points">
              <mxPoint x="500" y="379" />
            </Array>
          </mxGeometry>
        </mxCell>
        <mxCell id="LritLhVlbuT71aCa6HcX-31" value="" style="edgeStyle=orthogonalEdgeStyle;rounded=0;orthogonalLoop=1;jettySize=auto;html=1;strokeColor=#0B4D6A;" edge="1" parent="1" source="LritLhVlbuT71aCa6HcX-3" target="LritLhVlbuT71aCa6HcX-6">
          <mxGeometry relative="1" as="geometry" />
        </mxCell>
        <mxCell id="LritLhVlbuT71aCa6HcX-3" value="Estoquista&amp;nbsp; &amp;nbsp; &amp;nbsp;" style="rounded=0;whiteSpace=wrap;html=1;labelBackgroundColor=none;fillColor=#0050ef;glass=0;shadow=0;fontColor=#ffffff;strokeColor=#001DBC;" vertex="1" parent="1">
          <mxGeometry x="456" y="272" width="120" height="60" as="geometry" />
        </mxCell>
        <mxCell id="LritLhVlbuT71aCa6HcX-4" value="Consultar Prod" style="rounded=0;whiteSpace=wrap;html=1;labelBackgroundColor=none;fillColor=#09555B;strokeColor=#BAC8D3;fontColor=#EEEEEE;" vertex="1" parent="1">
          <mxGeometry x="312" y="201" width="120" height="60" as="geometry" />
        </mxCell>
        <mxCell id="LritLhVlbuT71aCa6HcX-5" value="Cadastrar Prod" style="rounded=0;whiteSpace=wrap;html=1;labelBackgroundColor=none;fillColor=#09555B;strokeColor=#BAC8D3;fontColor=#EEEEEE;gradientColor=none;" vertex="1" parent="1">
          <mxGeometry x="287" y="305" width="120" height="60" as="geometry" />
        </mxCell>
        <mxCell id="LritLhVlbuT71aCa6HcX-6" value="Excluir Produto" style="rounded=0;whiteSpace=wrap;html=1;labelBackgroundColor=none;fillColor=#09555B;strokeColor=#BAC8D3;fontColor=#EEEEEE;" vertex="1" parent="1">
          <mxGeometry x="456" y="136" width="120" height="60" as="geometry" />
        </mxCell>
        <mxCell id="LritLhVlbuT71aCa6HcX-18" style="edgeStyle=orthogonalEdgeStyle;rounded=0;orthogonalLoop=1;jettySize=auto;html=1;entryX=0.5;entryY=0;entryDx=0;entryDy=0;labelBackgroundColor=none;strokeColor=#0B4D6A;fontColor=default;" edge="1" parent="1" source="LritLhVlbuT71aCa6HcX-7" target="LritLhVlbuT71aCa6HcX-13">
          <mxGeometry relative="1" as="geometry" />
        </mxCell>
        <mxCell id="LritLhVlbuT71aCa6HcX-26" style="edgeStyle=orthogonalEdgeStyle;rounded=0;orthogonalLoop=1;jettySize=auto;html=1;strokeColor=#0B4D6A;" edge="1" parent="1" source="LritLhVlbuT71aCa6HcX-7" target="LritLhVlbuT71aCa6HcX-6">
          <mxGeometry relative="1" as="geometry" />
        </mxCell>
        <mxCell id="LritLhVlbuT71aCa6HcX-37" value="" style="edgeStyle=orthogonalEdgeStyle;rounded=0;orthogonalLoop=1;jettySize=auto;html=1;strokeColor=#0B4D6A;" edge="1" parent="1" source="LritLhVlbuT71aCa6HcX-7" target="LritLhVlbuT71aCa6HcX-4">
          <mxGeometry relative="1" as="geometry" />
        </mxCell>
        <mxCell id="LritLhVlbuT71aCa6HcX-7" value="Supervisor" style="rounded=0;whiteSpace=wrap;html=1;labelBackgroundColor=none;fillColor=#0050ef;strokeColor=#001DBC;fontColor=#ffffff;" vertex="1" parent="1">
          <mxGeometry x="312" y="53" width="120" height="60" as="geometry" />
        </mxCell>
        <mxCell id="LritLhVlbuT71aCa6HcX-13" value="Cancelar Vend" style="rounded=0;whiteSpace=wrap;html=1;labelBackgroundColor=none;fillColor=#09555B;strokeColor=#BAC8D3;fontColor=#EEEEEE;" vertex="1" parent="1">
          <mxGeometry x="146" y="113" width="120" height="60" as="geometry" />
        </mxCell>
      </root>
    </mxGraphModel>
  </diagram>
</mxfile>
